#!OML:ASF H:\Punching\Project 1\Capture day 1\Session 1\female.ASF
:FULLY-SPECIFIED
:DEGREES
905
root 0.573103 12.2983 0.163702 17.381 0.735841 5.3646
lowerback 18.473 4.25414 -0.0119655
upperback -1.14644 5.55191 -0.761932
thorax -11.5694 2.56977 -2.38572
lowerneck -12.1247 -4.29649 6.56277
upperneck 10.0639 -7.29625 3.26729
head 4.91621 -3.08129 -0.586854
rclavicle 1.06946e-013 -1.27222e-014
rhumerus 63.1901 -8.31395 -75.2366
rradius 29.2263
rwrist -15.4624
rhand -19.3119 -20.0931
rfingers 7.12502
rthumb 7.00406 -49.9573
lclavicle 1.06946e-013 -1.27222e-014
lhumerus 31.3892 -40.6657 73.2522
lradius 133.909
lwrist 12.1816
lhand -22.9349 10.3307
lfingers 7.12502
lthumb 3.50592 40.2816
rfemur -29.6903 -32.2285 -11.3525
rtibia 85.2832
rfoot -35.8795 -0.807801
rtoes -39.059
lfemur -78.6006 -0.271946 -19.012
ltibia 74.9693
lfoot -12.0079 0.868502
ltoes -6.23808
906
root 0.573466 12.3006 0.159679 17.5383 0.308956 5.34907
lowerback 18.4332 4.18865 -0.149159
upperback -1.18418 5.42668 -0.836519
thorax -11.5984 2.51627 -2.35521
lowerneck -12.1198 -4.05079 6.9038
upperneck 10.1163 -7.03583 3.33451
head 4.92891 -2.93374 -0.601125
rclavicle 5.08889e-014 -9.54166e-015
rhumerus 62.2529 -7.88982 -74.5233
rradius 31.0469
rwrist -12.9161
rhand -17.6629 -19.882
rfingers 7.12502
rthumb 8.59568 -49.687
lclavicle 5.08889e-014 -9.54166e-015
lhumerus 31.4352 -40.6464 73.2129
lradius 134.022
lwrist 12.1001
lhand -22.9493 10.2866
lfingers 7.12502
lthumb 3.49207 40.2378
rfemur -30.1893 -32.2151 -11.2129
rtibia 85.2674
rfoot -35.9831 -0.680888
rtoes -39.1102
lfemur -78.7401 -0.0631321 -18.9456
ltibia 75.014
lfoot -12.0404 1.14731
ltoes -6.45158
907
root 0.574082 12.3063 0.157297 17.7035 -0.136194 5.26206
lowerback 18.3587 4.07863 -0.338409
upperback -1.21734 5.23828 -0.849325
thorax -11.6145 2.43922 -2.20723
lowerneck -12.0981 -3.73702 7.27478
upperneck 10.199 -6.68042 3.32479
head 4.94697 -2.74291 -0.636959
rclavicle 5.00937e-014 -1.59028e-014
rhumerus 60.7588 -7.02167 -73.2219
rradius 34.3819
rwrist -11.909
rhand -15.5536 -19.8524
rfingers 7.12502
rthumb 10.6308 -49.5635
lclavicle 5.00937e-014 -1.59028e-014
lhumerus 31.4382 -40.6174 73.2258
lradius 134.153
lwrist 12.0075
lhand -22.9861 10.2449
lfingers 7.12502
lthumb 3.45651 40.1966
rfemur -30.7032 -32.1383 -10.957
rtibia 85.194
rfoot -36.064 -0.582664
rtoes -39.1597
lfemur -78.8723 0.189328 -18.8087
ltibia 75.06
lfoot -12.0875 1.42969
ltoes -6.68154
908
root 0.575539 12.3152 0.156129 17.865 -0.612901 5.09922
lowerback 18.2667 3.92911 -0.565924
upperback -1.23835 4.9964 -0.800382
thorax -11.6161 2.34227 -1.95326
lowerneck -12.0782 -3.35812 7.66938
upperneck 10.3242 -6.23358 3.2243
head 4.97788 -2.51091 -0.698589
rclavicle 5.88403e-014 -2.94201e-014
rhumerus 58.9772 -5.81771 -71.7666
rradius 38.9078
rwrist -12.5517
rhand -13.5205 -19.8597
rfingers 7.12502
rthumb 12.5914 -49.4602
lclavicle 5.88403e-014 -2.94201e-014
lhumerus 31.4113 -40.5564 73.2748
lradius 134.287
lwrist 11.9125
lhand -23.0445 10.2296
lfingers 7.12502
lthumb 3.40017 40.1822
rfemur -31.233 -31.9769 -10.5919
rtibia 85.0645
rfoot -36.1148 -0.506101
rtoes -39.1885
lfemur -78.9858 0.488465 -18.5931
ltibia 75.1145
lfoot -12.1527 1.72207
ltoes -6.92244
909
root 0.578736 12.3267 0.156043 18.0159 -1.13622 4.86088
lowerback 18.1644 3.7465 -0.807715
upperback -1.23549 4.71388 -0.698241
thorax -11.5886 2.22969 -1.61973
lowerneck -12.0856 -2.91847 8.07628
upperneck 10.4925 -5.70219 3.03601
head 5.02779 -2.24096 -0.784327
rclavicle -6.48038e-014 -2.38542e-015
rhumerus 57.0407 -4.35644 -70.2571
rradius 44.4932
rwrist -14.997
rhand -12.1906 -20.047
rfingers 7.12502
rthumb 13.8733 -49.5643
lclavicle -6.48038e-014 -2.38542e-015
lhumerus 31.4 -40.4435 73.3217
lradius 134.415
lwrist 11.8534
lhand -23.1326 10.2787
lfingers 7.12502
lthumb 3.31507 40.2327
rfemur -31.7773 -31.7208 -10.1343
rtibia 84.8798
rfoot -36.132 -0.434545
rtoes -39.1892
lfemur -79.0715 0.834166 -18.2968
ltibia 75.1856
lfoot -12.2231 1.99473
ltoes -7.04445
910
root 0.584572 12.3403 0.157215 18.15 -1.72888 4.55418
lowerback 18.0609 3.5352 -1.05613
upperback -1.2006 4.39768 -0.547545
thorax -11.5252 2.1038 -1.21864
lowerneck -12.1331 -2.41846 8.46677
upperneck 10.6971 -5.08437 2.77256
head 5.09934 -1.93277 -0.885516
rclavicle 5.28767e-014 -1.35174e-014
rhumerus 55.0682 -2.71667 -68.8634
rradius 50.9513
rwrist -19.0963
rhand -12.0366 -20.6486
rfingers 7.12502
rthumb 14.0217 -50.1556
lclavicle 5.28767e-014 -1.35174e-014
lhumerus 31.4245 -40.2407 73.3474
lradius 134.522
lwrist 11.8567
lhand -23.2524 10.4006
lfingers 7.12502
lthumb 3.1994 40.3563
rfemur -32.3366 -31.3636 -9.60967
rtibia 84.641
rfoot -36.1146 -0.351084
rtoes -39.1711
lfemur -79.1181 1.22845 -17.9256
ltibia 75.2815
lfoot -12.3307 2.30336
ltoes -7.17221
